<?xml version="1.0" encoding="UTF-8" standalone="no"?>
<svg
   xmlns:dc="http://purl.org/dc/elements/1.1/"
   xmlns:cc="http://creativecommons.org/ns#"
   xmlns:rdf="http://www.w3.org/1999/02/22-rdf-syntax-ns#"
   xmlns:svg="http://www.w3.org/2000/svg"
   xmlns="http://www.w3.org/2000/svg"
   xmlns:xlink="http://www.w3.org/1999/xlink"
   xmlns:sodipodi="http://sodipodi.sourceforge.net/DTD/sodipodi-0.dtd"
   xmlns:inkscape="http://www.inkscape.org/namespaces/inkscape"
   width="64"
   height="64"
   viewBox="0 0 16.933333 16.933334"
   version="1.1"
   id="svg8"
   inkscape:version="1.0.2 (e86c870879, 2021-01-15)"
   sodipodi:docname="keyboardon.svg">
  <defs
     id="defs2">
    <linearGradient
       inkscape:collect="always"
       id="linearGradient868">
      <stop
         style="stop-color:#000000;stop-opacity:1"
         offset="0"
         id="stop864" />
      <stop
         style="stop-color:#000000;stop-opacity:1"
         offset="1"
         id="stop866" />
    </linearGradient>
    <linearGradient
       inkscape:collect="always"
       xlink:href="#linearGradient868"
       id="linearGradient870"
       x1="9.4129953"
       y1="283.28815"
       x2="9.4129953"
       y2="293.74509"
       gradientUnits="userSpaceOnUse"
       gradientTransform="matrix(0.94477079,0,0,0.93849161,0.46760722,18.265044)" />
    <filter
       inkscape:collect="always"
       style="color-interpolation-filters:sRGB"
       id="filter944"
       x="-0.00078090224"
       width="1.0015618"
       y="-0.0029018713"
       height="1.0058037">
      <feGaussianBlur
         inkscape:collect="always"
         stdDeviation="0.037018293"
         id="feGaussianBlur946" />
    </filter>
    <filter
       inkscape:collect="always"
       style="color-interpolation-filters:sRGB"
       id="filter948"
       x="-0.00098268085"
       width="1.0019654"
       y="-0.010039821"
       height="1.0200796">
      <feGaussianBlur
         inkscape:collect="always"
         stdDeviation="0.0056794789"
         id="feGaussianBlur950" />
    </filter>
  </defs>
  <sodipodi:namedview
     id="base"
     pagecolor="#ffffff"
     bordercolor="#666666"
     borderopacity="1.0"
     inkscape:pageopacity="0.0"
     inkscape:pageshadow="2"
     inkscape:zoom="7.919596"
     inkscape:cx="55.064669"
     inkscape:cy="29.434963"
     inkscape:document-units="mm"
     inkscape:current-layer="layer1"
     showgrid="false"
     inkscape:snap-global="false"
     units="px"
     inkscape:window-width="1920"
     inkscape:window-height="1002"
     inkscape:window-x="0"
     inkscape:window-y="0"
     inkscape:window-maximized="1"
     inkscape:document-rotation="0" />
  <metadata
     id="metadata5">
    <rdf:RDF>
      <cc:Work
         rdf:about="">
        <dc:format>image/svg+xml</dc:format>
        <dc:type
           rdf:resource="http://purl.org/dc/dcmitype/StillImage" />
        <dc:title></dc:title>
      </cc:Work>
    </rdf:RDF>
  </metadata>
  <g
     inkscape:label="Layer 1"
     inkscape:groupmode="layer"
     id="layer1"
     transform="translate(0,-280.06665)">
    <rect
       rx="1.7712284"
       style="fill:url(#linearGradient870);fill-opacity:1;stroke:#ffffff;stroke-width:0.98252952;stroke-linecap:round;stroke-miterlimit:4;stroke-dasharray:none;stroke-opacity:1;paint-order:stroke fill markers"
       id="rect855"
       width="15.703177"
       height="9.9989491"
       x="0.61507767"
       y="284.0517"
       ry="1.9156351" />
    <rect
       style="fill:#feffff;fill-opacity:1;stroke:none;stroke-width:0.04059332;stroke-linecap:round;stroke-opacity:1;paint-order:stroke fill markers;filter:url(#filter948)"
       id="rect859"
       width="13.870983"
       height="1.3576686"
       x="1.5311748"
       y="291.33426"
       ry="0.4009043"
       transform="matrix(0.82220528,0,0,0.82220528,1.5053286,51.852629)" />
    <g
       id="g868"
       transform="matrix(0.79645546,0,0,0.79645546,1.7233438,58.730002)">
      <g
         style="fill:#feffff;fill-opacity:1;stroke:none;filter:url(#filter944)"
         transform="matrix(0.13106442,0,0,0.17959713,-3.1007438,272.13927)"
         id="g928">
        <rect
           ry="2.2322421"
           style="fill:#feffff;fill-opacity:1;stroke:none;stroke-width:0.26458332;stroke-linecap:round;stroke-opacity:1;paint-order:stroke fill markers"
           id="rect857"
           width="12.851191"
           height="7.9375"
           x="31.372023"
           y="70.970238" />
        <rect
           ry="2.6042826"
           y="70.970238"
           x="48.002975"
           height="7.9375"
           width="12.851191"
           id="rect861"
           style="fill:#feffff;fill-opacity:1;stroke:none;stroke-width:0.26458332;stroke-linecap:round;stroke-opacity:1;paint-order:stroke fill markers" />
        <rect
           ry="2.046222"
           style="fill:#feffff;fill-opacity:1;stroke:none;stroke-width:0.26458332;stroke-linecap:round;stroke-opacity:1;paint-order:stroke fill markers"
           id="rect863"
           width="12.851191"
           height="7.9375"
           x="65.011902"
           y="70.970238" />
        <rect
           ry="2.4182625"
           y="70.970238"
           x="81.264877"
           height="7.9375"
           width="12.851191"
           id="rect865"
           style="fill:#feffff;fill-opacity:1;stroke:none;stroke-width:0.26458332;stroke-linecap:round;stroke-opacity:1;paint-order:stroke fill markers" />
        <rect
           ry="1.6741817"
           y="81.553574"
           x="31.372023"
           height="7.9375"
           width="12.851191"
           id="rect867"
           style="fill:#feffff;fill-opacity:1;stroke:none;stroke-width:0.26458332;stroke-linecap:round;stroke-opacity:1;paint-order:stroke fill markers" />
        <rect
           ry="1.8602018"
           style="fill:#feffff;fill-opacity:1;stroke:none;stroke-width:0.26458332;stroke-linecap:round;stroke-opacity:1;paint-order:stroke fill markers"
           id="rect869"
           width="12.851191"
           height="7.9375"
           x="48.002975"
           y="81.553574" />
        <rect
           ry="1.6741817"
           y="81.553574"
           x="65.011902"
           height="7.9375"
           width="12.851191"
           id="rect871"
           style="fill:#feffff;fill-opacity:1;stroke:none;stroke-width:0.26458332;stroke-linecap:round;stroke-opacity:1;paint-order:stroke fill markers" />
        <rect
           ry="1.6741817"
           style="fill:#feffff;fill-opacity:1;stroke:none;stroke-width:0.26458332;stroke-linecap:round;stroke-opacity:1;paint-order:stroke fill markers"
           id="rect873"
           width="12.851191"
           height="7.9375"
           x="81.264877"
           y="81.553574" />
        <rect
           ry="1.8602018"
           style="fill:#feffff;fill-opacity:1;stroke:none;stroke-width:0.26458332;stroke-linecap:round;stroke-opacity:1;paint-order:stroke fill markers"
           id="rect875"
           width="12.851191"
           height="7.9375"
           x="31.372023"
           y="93.648811" />
        <rect
           ry="1.6741817"
           y="93.648811"
           x="48.002975"
           height="7.9375"
           width="12.851191"
           id="rect877"
           style="fill:#feffff;fill-opacity:1;stroke:none;stroke-width:0.26458332;stroke-linecap:round;stroke-opacity:1;paint-order:stroke fill markers" />
        <rect
           ry="1.6741817"
           style="fill:#feffff;fill-opacity:1;stroke:none;stroke-width:0.26458332;stroke-linecap:round;stroke-opacity:1;paint-order:stroke fill markers"
           id="rect879"
           width="12.851191"
           height="7.9375"
           x="65.011902"
           y="93.648811" />
        <rect
           ry="1.8602018"
           y="93.648811"
           x="81.264877"
           height="7.9375"
           width="12.851191"
           id="rect881"
           style="fill:#feffff;fill-opacity:1;stroke:none;stroke-width:0.26458332;stroke-linecap:round;stroke-opacity:1;paint-order:stroke fill markers" />
        <rect
           ry="1.8602018"
           y="70.970238"
           x="99.029762"
           height="7.9375"
           width="12.851191"
           id="rect883"
           style="fill:#feffff;fill-opacity:1;stroke:none;stroke-width:0.26458332;stroke-linecap:round;stroke-opacity:1;paint-order:stroke fill markers" />
        <rect
           ry="1.4881614"
           style="fill:#feffff;fill-opacity:1;stroke:none;stroke-width:0.26458332;stroke-linecap:round;stroke-opacity:1;paint-order:stroke fill markers"
           id="rect885"
           width="12.851191"
           height="7.9375"
           x="115.28274"
           y="70.970238" />
        <rect
           ry="1.6741817"
           style="fill:#feffff;fill-opacity:1;stroke:none;stroke-width:0.26458332;stroke-linecap:round;stroke-opacity:1;paint-order:stroke fill markers"
           id="rect887"
           width="12.851191"
           height="7.9375"
           x="99.029762"
           y="81.553574" />
        <rect
           ry="1.3021413"
           y="81.553574"
           x="115.28274"
           height="7.9375"
           width="12.851191"
           id="rect889"
           style="fill:#feffff;fill-opacity:1;stroke:none;stroke-width:0.26458332;stroke-linecap:round;stroke-opacity:1;paint-order:stroke fill markers" />
        <rect
           ry="1.4881614"
           y="93.648811"
           x="99.029762"
           height="7.9375"
           width="12.851191"
           id="rect891"
           style="fill:#feffff;fill-opacity:1;stroke:none;stroke-width:0.26458332;stroke-linecap:round;stroke-opacity:1;paint-order:stroke fill markers" />
        <rect
           ry="1.8602018"
           style="fill:#feffff;fill-opacity:1;stroke:none;stroke-width:0.26458332;stroke-linecap:round;stroke-opacity:1;paint-order:stroke fill markers"
           id="rect893"
           width="12.851191"
           height="7.9375"
           x="115.28274"
           y="93.648811" />
        <rect
           ry="1.6741817"
           style="fill:#feffff;fill-opacity:1;stroke:none;stroke-width:0.26458332;stroke-linecap:round;stroke-opacity:1;paint-order:stroke fill markers"
           id="rect895"
           width="12.851191"
           height="7.9375"
           x="132.29167"
           y="70.970238" />
        <rect
           ry="1.8602018"
           y="81.553574"
           x="132.29167"
           height="7.9375"
           width="12.851191"
           id="rect899"
           style="fill:#feffff;fill-opacity:1;stroke:none;stroke-width:0.26458332;stroke-linecap:round;stroke-opacity:1;paint-order:stroke fill markers" />
        <rect
           ry="1.8602018"
           style="fill:#feffff;fill-opacity:1;stroke:none;stroke-width:0.26458332;stroke-linecap:round;stroke-opacity:1;paint-order:stroke fill markers"
           id="rect903"
           width="12.851191"
           height="7.9375"
           x="132.29167"
           y="93.648811" />
      </g>
    </g>
    <path
       style="fill:#77757f;stroke-width:0.00910749"
       d="m 16.214095,285.39026 c -0.0076,-0.0115 -0.04774,-0.0718 -0.116122,-0.16191 -0.0114,-0.015 -0.02358,-0.0309 -0.03652,-0.0475 -0.01295,-0.0166 -0.02667,-0.034 -0.04112,-0.0519 -0.01446,-0.018 -0.02966,-0.0367 -0.0456,-0.0559 -0.09558,-0.11552 -0.217289,-0.25172 -0.360839,-0.38996 -0.02392,-0.023 -0.04846,-0.0461 -0.07357,-0.0692 -0.02512,-0.023 -0.05083,-0.0461 -0.07711,-0.069 -0.07882,-0.0687 -0.162754,-0.13646 -0.251243,-0.20079 -0.02951,-0.0215 -0.05951,-0.0425 -0.09,-0.0631 -0.07623,-0.0515 -0.155522,-0.10015 -0.237538,-0.14453 -0.03282,-0.0177 -0.06606,-0.0348 -0.09972,-0.0511 -0.05051,-0.0245 -0.101944,-0.0472 -0.154263,-0.068 -0.03488,-0.0138 -0.07015,-0.0268 -0.105792,-0.0387 -0.05346,-0.018 -0.107747,-0.0336 -0.16279,-0.047 -0.01836,-0.004 -0.03679,-0.009 -0.0553,-0.0124 -0.03704,-0.008 -0.0744,-0.0142 -0.112077,-0.0195 -0.07535,-0.0106 -0.151951,-0.0162 -0.229601,-0.0162 -4.5e-5,0 -8e-5,0 -1.07e-4,0 -0.0014,0 -0.0027,7e-5 -0.0041,7e-5 -0.03745,10e-5 -0.07465,10e-4 -0.111569,0.004 -5.28e-4,3e-5 -10e-4,1e-4 -0.0016,1.4e-4 -0.01862,10e-4 -0.03718,0.003 -0.05566,0.005 -3.49e-4,3e-5 -6.61e-4,7e-5 -0.001,1.4e-4 -0.05663,0.006 -0.112595,0.0149 -0.167807,0.0264 -0.0021,4.4e-4 -0.0041,7.3e-4 -0.0061,10e-4 -0.01645,0.004 -0.03283,0.007 -0.04915,0.011 -0.0017,4e-4 -0.0034,7.4e-4 -0.0051,10e-4 -0.01663,0.004 -0.03323,0.008 -0.04973,0.0127 -1.95e-4,6e-5 -3.83e-4,10e-5 -5.72e-4,1.7e-4 -0.290634,0.0793 -0.55893,0.22676 -0.794754,0.39819 -0.0013,7.3e-4 -0.0026,0.002 -0.0039,0.003 -0.02813,0.0205 -0.05584,0.0414 -0.08303,0.0625 -0.0031,0.002 -0.006,0.004 -0.0091,0.007 -0.03948,0.0309 -0.07801,0.0623 -0.115381,0.094 -4.4e-5,3e-5 -7.1e-5,7e-5 -1.08e-4,7e-5 -0.09388,0.0797 -0.180923,0.16135 -0.260314,0.24125 -0.0026,0.002 -0.0051,0.005 -0.0076,0.008 -0.126443,0.12788 -0.233056,0.25087 -0.316456,0.35395 -0.0078,0.01 -0.01532,0.019 -0.02268,0.0282 -0.09317,0.11695 -0.153567,0.20405 -0.175468,0.23651 -0.0022,0.003 -0.004,0.006 -0.0055,0.008 -0.0011,0.001 -0.002,0.003 -0.0026,0.004 -0.04848,0.0736 -0.04848,0.17074 0,0.2444 6.16e-4,7.3e-4 0.0015,0.002 0.0026,0.004 0.0014,0.002 0.0033,0.005 0.0055,0.008 0.0024,0.004 0.0051,0.008 0.0084,0.0123 0.0016,0.002 0.0032,0.004 0.0049,0.007 0.02396,0.0347 0.06662,0.0946 0.126015,0.17111 0.0038,0.005 0.0076,0.01 0.01152,0.0148 0.0079,0.0102 0.01617,0.0205 0.02464,0.0312 0.0074,0.009 0.01492,0.0186 0.02268,0.0282 0.105596,0.1305 0.24844,0.293 0.421543,0.45678 0.003,0.003 0.0058,0.006 0.0088,0.008 0.04898,0.0461 0.100345,0.0922 0.153923,0.13772 7.2e-5,7e-5 1.42e-4,10e-5 2.07e-4,1.7e-4 0.159263,0.1352 0.338196,0.26472 0.532583,0.37063 0.0021,7.3e-4 0.0043,0.002 0.0064,0.004 0.147469,0.0798 0.303813,0.14593 0.467201,0.19053 1.95e-4,7e-5 3.83e-4,1.1e-4 5.72e-4,1.8e-4 0.03477,0.009 0.06988,0.018 0.105283,0.0253 0.0016,3.5e-4 0.0032,5.1e-4 0.0049,7.4e-4 0.01833,0.004 0.03672,0.007 0.05521,0.0105 1.96e-4,3e-5 3.83e-4,7e-5 5.72e-4,1.1e-4 0.03703,0.007 0.07437,0.0117 0.112015,0.0157 3.48e-4,4e-5 6.61e-4,7e-5 0.001,1.5e-4 0.01848,0.002 0.03704,0.004 0.05566,0.005 5.28e-4,3e-5 10e-4,1.1e-4 0.0016,1.4e-4 0.03692,0.002 0.07412,0.004 0.111569,0.004 0.0013,0 0.0027,8e-5 0.0041,8e-5 4.5e-5,0 8e-5,0 1.07e-4,0 0.07767,0 0.154263,-0.006 0.229601,-0.0162 0.03768,-0.005 0.07504,-0.0119 0.112077,-0.0195 0.01852,-0.004 0.03695,-0.008 0.0553,-0.0124 0.05505,-0.0132 0.109337,-0.029 0.16279,-0.0469 0.03565,-0.0119 0.07091,-0.0249 0.105792,-0.0388 0.05232,-0.0207 0.103756,-0.0435 0.154263,-0.068 0.03366,-0.0163 0.06691,-0.0334 0.09972,-0.0511 0.08202,-0.0444 0.161309,-0.093 0.237539,-0.14455 0.03049,-0.0206 0.06049,-0.0417 0.09,-0.0631 0.08849,-0.0643 0.172424,-0.13202 0.251243,-0.20078 0.02628,-0.023 0.05197,-0.046 0.0771,-0.069 0.02512,-0.023 0.04965,-0.0461 0.07357,-0.0692 0.14355,-0.13823 0.265261,-0.27445 0.360838,-0.38997 0.01593,-0.0193 0.03114,-0.038 0.0456,-0.0559 0.01446,-0.018 0.02818,-0.0354 0.04112,-0.052 0.01295,-0.0166 0.02512,-0.0325 0.03652,-0.0475 0.06839,-0.0902 0.108523,-0.15038 0.116121,-0.1619 0.0485,-0.0736 0.0485,-0.17072 0,-0.24438 z"
       id="path2" />
    <path
       style="fill:#ffffff;stroke-width:0.00910749"
       d="m 13.964864,284.31578 c -0.83745,0 -1.571831,0.86936 -1.818449,1.19649 0.247046,0.3268 0.983356,1.19689 1.818449,1.19689 0.83469,0 1.570866,-0.86957 1.818226,-1.1967 -0.247253,-0.32696 -0.983482,-1.19668 -1.818226,-1.19668 z m 0,1.7971 c -0.318813,0 -0.577234,-0.26849 -0.577234,-0.6004 0,-0.33191 0.258421,-0.60041 0.577234,-0.60041 0.318607,0 0.577215,0.2685 0.577215,0.60041 0,0.33191 -0.258608,0.6004 -0.577215,0.6004 z"
       id="path4" />
    <path
       style="fill:#222224;stroke-width:0.00910749"
       d="m 13.964864,284.91206 c -0.318813,0 -0.577234,0.26849 -0.577234,0.6004 0,0.33192 0.258421,0.60041 0.577234,0.60041 0.318607,0 0.577215,-0.26849 0.577215,-0.60041 0,-0.33191 -0.258608,-0.6004 -0.577215,-0.6004 z"
       id="path6" />
    <path
       style="fill:#5286fa;stroke-width:0.00910749"
       d="m 13.964864,284.91206 c -4.5e-5,0 -7.2e-5,0 -1.08e-4,0 -0.318758,7e-5 -0.577117,0.26854 -0.577117,0.6004 0,0.33188 0.258359,0.60035 0.577117,0.60041 4.5e-5,0 7.2e-5,0 1.08e-4,0 0.318607,0 0.577215,-0.26849 0.577215,-0.60041 0,-0.33191 -0.258608,-0.6004 -0.577215,-0.6004 z"
       id="path8" />
    <path
       style="fill:#bdfdff;stroke-width:0.00910749"
       d="m 13.964864,284.31578 c -4.5e-5,0 -8.1e-5,0 -1.08e-4,0 -0.837404,8e-5 -1.571723,0.86939 -1.818341,1.19649 0.247029,0.32678 0.983285,1.19681 1.818341,1.19688 4.5e-5,0 8.1e-5,0 1.08e-4,0 0.83469,0 1.570866,-0.86959 1.818226,-1.1967 -0.247253,-0.32695 -0.983482,-1.19667 -1.818226,-1.19667 z m 0,1.7971 c -4.5e-5,0 -7.2e-5,0 -1.08e-4,0 -0.318758,-7e-5 -0.577117,-0.26853 -0.577117,-0.6004 0,-0.33188 0.258359,-0.60035 0.577117,-0.60041 4.5e-5,0 7.2e-5,0 1.08e-4,0 0.318607,0 0.577215,0.2685 0.577215,0.60041 0,0.33191 -0.258608,0.6004 -0.577215,0.6004 z"
       id="path10" />
    <path
       style="fill:#9bc9ff;stroke-width:0.00910749"
       d="m 12.146397,285.51227 c 0.247028,0.32678 0.983285,1.19681 1.818342,1.19688 v -0.59627 c -0.318759,-7e-5 -0.577118,-0.26854 -0.577118,-0.60041 0,-0.33187 0.258359,-0.60034 0.577118,-0.6004 v -0.59627 c -0.837396,6e-5 -1.571724,0.86937 -1.818342,1.19647 z"
       id="path12" />
    <path
       style="fill:#57575c;stroke-width:0.00910749"
       d="m 12.146397,285.51227 c 0.246618,-0.3271 0.980928,-1.19641 1.818342,-1.19649 v -0.43241 c -1.242885,8e-5 -2.208688,1.44537 -2.249205,1.50691 -0.04848,0.0736 -0.04848,0.17073 0,0.24438 0.04052,0.0615 1.00632,1.50682 2.249214,1.50692 v -0.43242 c -0.835049,-8e-5 -1.571304,-0.87009 -1.818351,-1.19689 z"
       id="path14" />
    <path
       style="fill:#3d6deb;stroke-width:0.00910749"
       d="m 13.38763,285.51246 c 0,0.33188 0.258358,0.60035 0.577118,0.60041 v -1.20081 c -0.31876,7e-5 -0.577118,0.26854 -0.577118,0.6004 z"
       id="path16" />
    <g
       id="g18"
       transform="matrix(0.00892832,0,0,0.00929022,11.679169,283.13418)" />
    <g
       id="g20"
       transform="matrix(0.00892832,0,0,0.00929022,11.679169,283.13418)" />
    <g
       id="g22"
       transform="matrix(0.00892832,0,0,0.00929022,11.679169,283.13418)" />
    <g
       id="g24"
       transform="matrix(0.00892832,0,0,0.00929022,11.679169,283.13418)" />
    <g
       id="g26"
       transform="matrix(0.00892832,0,0,0.00929022,11.679169,283.13418)" />
    <g
       id="g28"
       transform="matrix(0.00892832,0,0,0.00929022,11.679169,283.13418)" />
    <g
       id="g30"
       transform="matrix(0.00892832,0,0,0.00929022,11.679169,283.13418)" />
    <g
       id="g32"
       transform="matrix(0.00892832,0,0,0.00929022,11.679169,283.13418)" />
    <g
       id="g34"
       transform="matrix(0.00892832,0,0,0.00929022,11.679169,283.13418)" />
    <g
       id="g36"
       transform="matrix(0.00892832,0,0,0.00929022,11.679169,283.13418)" />
    <g
       id="g38"
       transform="matrix(0.00892832,0,0,0.00929022,11.679169,283.13418)" />
    <g
       id="g40"
       transform="matrix(0.00892832,0,0,0.00929022,11.679169,283.13418)" />
    <g
       id="g42"
       transform="matrix(0.00892832,0,0,0.00929022,11.679169,283.13418)" />
    <g
       id="g44"
       transform="matrix(0.00892832,0,0,0.00929022,11.679169,283.13418)" />
    <g
       id="g46"
       transform="matrix(0.00892832,0,0,0.00929022,11.679169,283.13418)" />
  </g>
</svg>
